<!DOCTYPE svg PUBLIC "-//W3C//DTD SVG 1.1//EN" "http://www.w3.org/Graphics/SVG/1.1/DTD/svg11.dtd">
<!-- Uploaded to: SVG Repo, www.svgrepo.com, Transformed by: SVG Repo Mixer Tools -->
<svg fill="#ffffff" width="800px" height="800px" viewBox="0 0 32 32" version="1.1" xmlns="http://www.w3.org/2000/svg">
<g id="SVGRepo_bgCarrier" stroke-width="0"/>
<g id="SVGRepo_tracerCarrier" stroke-linecap="round" stroke-linejoin="round"/>
<g id="SVGRepo_iconCarrier"> <title>battery-empty</title> <path d="M27 9.25h-25c-0.414 0-0.75 0.336-0.75 0.75v0 12c0 0.414 0.336 0.75 0.75 0.75h25c0.414-0 0.75-0.336 0.75-0.75v0-12c-0-0.414-0.336-0.75-0.75-0.75v0zM26.25 21.25h-23.5v-10.5h23.5zM30 13.25c-0.414 0-0.75 0.336-0.75 0.75v0 4c0 0.414 0.336 0.75 0.75 0.75s0.75-0.336 0.75-0.75v0-4c-0-0.414-0.336-0.75-0.75-0.75v0z"/> </g>
</svg>